<?xml version="1.0" encoding="UTF-8" standalone="no"?>
<svg
   width="1024"
   height="1024"
   viewBox="-13 -4 270.93332 270.93333"
   version="1.1"
   id="svg1"
   sodipodi:docname="kayaknav.svg"
   inkscape:version="1.3.2 (091e20ef0f, 2023-11-25, custom)"
   xml:space="preserve"
   inkscape:export-filename="web/logo-192.png"
   inkscape:export-xdpi="576"
   inkscape:export-ydpi="576"
   xmlns:inkscape="http://www.inkscape.org/namespaces/inkscape"
   xmlns:sodipodi="http://sodipodi.sourceforge.net/DTD/sodipodi-0.dtd"
   xmlns="http://www.w3.org/2000/svg"
   xmlns:svg="http://www.w3.org/2000/svg"
   xmlns:rdf="http://www.w3.org/1999/02/22-rdf-syntax-ns#"
   xmlns:cc="http://creativecommons.org/ns#"
   xmlns:dc="http://purl.org/dc/elements/1.1/"><defs
     id="defs1" /><sodipodi:namedview
     id="namedview1"
     pagecolor="#ffffff"
     bordercolor="#666666"
     borderopacity="1.0"
     inkscape:showpageshadow="2"
     inkscape:pageopacity="0.0"
     inkscape:pagecheckerboard="0"
     inkscape:deskcolor="#d1d1d1"
     inkscape:document-units="mm"
     inkscape:zoom="1.1269531"
     inkscape:cx="553.70538"
     inkscape:cy="776.87349"
     inkscape:window-width="1916"
     inkscape:window-height="2105"
     inkscape:window-x="0"
     inkscape:window-y="0"
     inkscape:window-maximized="0"
     inkscape:current-layer="svg1" /><title
     id="title1">OpenSCAD Model</title><path
     style="fill:#1e453e;fill-opacity:1;stroke:#b59e5f;stroke-width:3.175;stroke-dasharray:none;stroke-opacity:1"
     d="M 170.85608,179.85609 254.62982,131.48939 170.85608,83.122691 122.4894,-0.65103626 74.122689,83.122691 -9.6510453,131.48939 74.122689,179.85609 122.4894,263.62982 Z"
     id="path1" /><path
     style="fill:#1e453e;fill-opacity:1;stroke:#b59e5f;stroke-width:3.175;stroke-dasharray:none;stroke-opacity:1"
     d="m 132.20338,230.11736 9.62081,-1.42713 9.43417,-2.36299 9.15734,-3.27643 8.79195,-4.15877 8.34202,-4.99989 7.81149,-5.79334 7.20628,-6.53172 6.53203,-7.20627 5.79338,-7.81182 4.99986,-8.34201 4.15846,-8.79197 3.27641,-9.157 2.36332,-9.4343 1.42713,-9.62077 0.4767,-9.71356 -0.4767,-9.71353 -1.42713,-9.62079 -2.36332,-9.43431 -3.27641,-9.156988 -4.15846,-8.791966 -4.99986,-8.342026 -5.79338,-7.811813 -6.53203,-7.206278 -7.20628,-6.531703 -7.81149,-5.793367 -8.34202,-4.999863 -8.79195,-4.158789 -9.15734,-3.276423 -9.43417,-2.363 -9.62081,-1.427117 -9.71397,-0.477359 -9.71233,0.477359 -9.62313,1.427117 -9.431504,2.363 -9.157338,3.276423 -8.793971,4.158789 -8.341373,4.999863 -7.812799,5.793367 -7.204956,6.531703 -6.531042,7.206278 -5.794352,7.811813 -5.001519,8.342026 -4.155819,8.791966 -3.277086,9.156988 -2.365304,9.43431 -1.423813,9.62079 -0.479016,9.71353 0.479016,9.71356 1.423813,9.62077 2.365304,9.4343 3.277086,9.157 4.155819,8.79197 5.001519,8.34201 5.794352,7.81182 6.531042,7.20627 7.204956,6.53172 7.812799,5.79334 8.341373,4.99989 8.793971,4.15877 9.157338,3.27643 9.431504,2.36299 9.62313,1.42713 9.71233,0.47737 z"
     id="path2" /><path
     style="fill:none;fill-opacity:1;stroke:#b59e5f;stroke-width:3.175;stroke-dasharray:none;stroke-opacity:1"
     d="m 130.83129,216.1861 8.26187,-1.22554 8.10158,-2.02922 7.86386,-2.81363 7.55007,-3.57136 7.16371,-4.29362 6.70811,-4.97506 6.1884,-5.60908 5.60937,-6.18841 4.97504,-6.70836 4.29363,-7.16374 3.57107,-7.55007 2.81366,-7.86359 2.02949,-8.10168 1.22553,-8.26185 0.40937,-8.3415 -0.40937,-8.34151 -1.22553,-8.26183 -2.02949,-8.10169 -2.81366,-7.863575 -3.57107,-7.550085 -4.29363,-7.163715 -4.97504,-6.708387 -5.60937,-6.188389 -6.1884,-5.609095 -6.70811,-4.975052 -7.16371,-4.293635 -7.55007,-3.571354 -7.86386,-2.813632 -8.10158,-2.029216 -8.26187,-1.225534 -8.34188,-0.409932 -8.34046,0.409932 -8.26385,1.225534 -8.09929,2.029216 -7.863858,2.813632 -7.551811,3.571354 -7.163123,4.293632 -6.709233,4.975051 -6.187239,5.609094 -5.608537,6.188392 -4.975921,6.708385 -4.295026,7.163709 -3.568811,7.550095 -2.814265,7.863575 -2.031319,8.10169 -1.222636,8.26183 -0.411283,8.34151 0.411283,8.3415 1.222636,8.26185 2.031319,8.10168 2.814265,7.86359 3.568811,7.55007 4.295026,7.16373 4.975921,6.70837 5.608537,6.18841 6.187239,5.60908 6.709233,4.97506 7.163123,4.29362 7.551811,3.57136 7.863858,2.81363 8.09929,2.02922 8.26385,1.22554 8.34046,0.40992 z"
     id="path2-5" /><path
     style="fill:#918e8c;fill-opacity:1;stroke:#b59e5f;stroke-width:1.5875;stroke-dasharray:none;stroke-opacity:1"
     d="m 135.62363,118.26784 -0.23787,-13.09513 -0.39377,-12.844036 -0.54639,-12.464149 -0.69308,-11.965315 -0.83313,-11.35747 -0.96532,-10.6307 -1.08882,-9.811424 -1.20114,-8.88975 -1.30195,-7.885479 -1.39009,-6.805231 -1.46544,-5.6622172 -1.5259,-4.4597394 -1.49119,-3.04914041 -1.49106,3.04914041 -1.52582,4.4597394 -1.46533,5.6622172 -1.39027,6.805231 -1.302,7.885479 -1.20123,8.88975 -1.08879,9.811424 -0.96535,10.6307 -0.83319,11.35747 -0.69311,11.965315 -0.54644,12.464149 -0.39367,12.844036 -0.23785,13.09513 -0.0797,13.22064 0.0797,13.22199 0.23785,13.09543 0.39367,12.84108 0.54644,12.46482 0.69311,11.96728 0.83319,11.35485 0.96535,10.63299 1.08879,9.80943 1.20123,8.89044 1.302,7.88546 1.39027,6.80623 1.46533,5.66022 1.52582,4.45943 1.49106,3.05144 1.49119,-3.05144 1.5259,-4.45943 1.46544,-5.66022 1.39009,-6.80623 1.30195,-7.88546 1.20114,-8.89044 1.08882,-9.80943 0.96532,-10.63299 0.83313,-11.35485 0.69308,-11.96728 0.54639,-12.46482 0.39377,-12.84108 0.23787,-13.09543 0.0794,-13.22199 z"
     id="path3" /><metadata
     id="metadata3"><rdf:RDF><cc:Work
         rdf:about=""><dc:title>OpenSCAD Model</dc:title></cc:Work></rdf:RDF></metadata><path
     d="m 134.41112,131.27434 -0.17244,-1.16299 -0.28541,-1.14067 -4.58578,-17.7763 -0.2372,-0.66393 -0.30161,-0.63757 -0.36272,-0.60506 -0.42,-0.56665 -0.47391,-0.52276 -0.52283,-0.47343 -0.56662,-0.42051 -0.60473,-0.36272 -0.6378,-0.30143 -0.66389,-0.23768 -0.68451,-0.17098 -0.69746,-0.10351 -0.70487,-0.0347 -0.70441,0.0347 -0.69721,0.10351 -0.68519,0.17098 -0.6637,0.23768 -0.63731,0.30143 -0.60616,0.36272 -0.56542,0.42051 -0.52232,0.47343 -0.47442,0.52276 -0.41929,0.56665 -0.36417,0.60506 -0.30195,0.63757 -0.23719,0.66393 -4.58579,17.7763 -0.28507,1.14067 -0.17246,1.16299 -0.0575,1.174 0.0575,1.174 0.17246,1.16298 0.28507,1.14068 0.39776,1.10666 0.50316,1.06283 0.60376,1.00821 0.69959,0.94425 0.79067,0.87116 0.86969,0.78969 0.94401,0.70005 1.00869,0.60425 1.0638,0.50265 1.10691,0.39631 1.14044,0.28569 1.16201,0.17248 1.174,0.0576 1.17423,-0.0576 1.16295,-0.17248 1.14071,-0.28569 1.10671,-0.39631 1.0626,-0.50265 1.00842,-0.60425 0.94424,-0.70005 0.87118,-0.78969 0.78969,-0.87116 0.70008,-0.94425 0.60426,-1.00821 0.50268,-1.06283 0.39653,-1.10666 0.28541,-1.14068 0.17248,-1.16298 0.0575,-1.174 z"
     id="path1-9"
     style="fill:none;fill-opacity:1;stroke:#b59e5f;stroke-width:1.5875;stroke-dasharray:none;stroke-opacity:1" /><path
     style="fill:#918e8c;fill-opacity:1;stroke:#b59e5f;stroke-width:1.5875;stroke-dasharray:none;stroke-opacity:1"
     d="m 178.97183,131.28892 c -2.27447,6.58073 -12.02489,7.6761 -22.76597,2.55749 -3.76584,-1.79458 -1.31219,-1.64914 -27.70179,-1.6428 -12.20713,0.003 -24.66247,-0.0289 -27.67844,-0.0705 -8.409396,-0.11658 -9.237209,-0.005 -12.66892,1.71461 -10.064461,5.04263 -21.368284,3.37614 -22.281264,-3.28486 -0.568875,-4.15004 12.512369,-6.20999 20.166945,-3.17576 0.657654,0.26062 1.854615,0.84065 2.659955,1.2888 3.06301,1.70451 1.654266,1.58706 19.516904,1.62751 50.75058,0.11464 43.73492,0.37415 47.81238,-1.76719 8.83916,-4.64209 24.83276,-2.72261 22.94019,2.75313 z"
     id="path8" /></svg>
